<svg width="20" height="20" viewBox="0 0 20 20" fill="none" xmlns="http://www.w3.org/2000/svg">
<g clip-path="url(#clip0)">
<path d="M10.3025 12.4558C10.3025 10.9158 9.57 9.7775 8.05667 9.35083C9.16083 8.825 9.73667 8.02833 9.73667 6.78917C9.73667 4.34583 7.91 3.75 5.8025 3.75H0V16.0175H5.965C8.20167 16.0175 10.3025 14.9483 10.3025 12.4558ZM2.705 5.84417H5.24333C6.21917 5.84417 7.0975 6.1175 7.0975 7.24583C7.0975 8.2875 6.41417 8.70667 5.4475 8.70667H2.705V5.84417ZM2.70417 13.9342V10.5558H5.6525C6.84333 10.5558 7.59667 11.0508 7.59667 12.3075C7.59667 13.5467 6.6975 13.9342 5.59667 13.9342H2.70417Z" fill="white"/>
<path d="M15.6635 16.2498C17.7918 16.2498 19.1702 15.2939 19.8335 13.2623H17.6735C17.441 14.0206 16.4827 14.4214 15.7393 14.4214C14.3052 14.4214 13.5518 13.5839 13.5518 12.1606H19.9793C20.1827 9.31226 18.596 6.88477 15.6627 6.88477C12.9468 6.88477 11.1035 8.91976 11.1035 11.5856C11.1035 14.3523 12.8502 16.2498 15.6635 16.2498ZM15.5868 8.7281C16.816 8.7281 17.4343 9.4481 17.5377 10.6256H13.5552C13.636 9.4581 14.4135 8.7281 15.5868 8.7281Z" fill="white"/>
<path d="M13.0566 4.39453H18.0466V5.60287H13.0566V4.39453Z" fill="white"/>
</g>
<defs>
<clipPath id="clip0">
<rect width="20" height="20" fill="white"/>
</clipPath>
</defs>
</svg>
