<svg width="30" height="32" viewBox="0 0 30 32" fill="none" xmlns="http://www.w3.org/2000/svg">
<path fill-rule="evenodd" clip-rule="evenodd" d="M20 6.20212V14.8188H26.6667C28.5 14.8188 30 16.3188 30 18.1521V28.1521C30 29.9855 28.5 31.4855 26.6667 31.4855H3.33333C1.5 31.4855 0 29.9855 0 28.1521V11.4855C0 9.65212 1.5 8.15212 3.33333 8.15212H10V6.20212C10 5.31879 10.35 4.46879 10.9833 3.83546L13.8167 1.00212C14.1281 0.690037 14.5508 0.514648 14.9917 0.514648C15.4325 0.514648 15.8553 0.690037 16.1667 1.00212L19.0167 3.85212C19.65 4.46879 20 5.31879 20 6.20212ZM3.33333 28.1521H6.66667V24.8188H3.33333V28.1521ZM6.66667 21.4855H3.33333V18.1521H6.66667V21.4855ZM3.33333 14.8188H6.66667V11.4855H3.33333V14.8188ZM16.6667 28.1521H13.3333V24.8188H16.6667V28.1521ZM13.3333 21.4855H16.6667V18.1521H13.3333V21.4855ZM16.6667 14.8188H13.3333V11.4855H16.6667V14.8188ZM13.3333 8.15212H16.6667V4.81879H13.3333V8.15212ZM26.6667 28.1521H23.3333V24.8188H26.6667V28.1521ZM23.3333 21.4855H26.6667V18.1521H23.3333V21.4855Z" fill="#1421FF"/>
</svg>
