<svg width="12" height="12" viewBox="0 0 12 12" fill="none" xmlns="http://www.w3.org/2000/svg">
<path d="M10.4399 0.150147C10.5337 0.055491 10.6615 0.0022483 10.7949 0.00224829C10.9282 0.00224829 11.056 0.055491 11.1499 0.150147L11.8499 0.850147C11.9445 0.94403 11.9978 1.07183 11.9978 1.20515C11.9978 1.33847 11.9445 1.46626 11.8499 1.56015L7.40985 6.00015L11.8499 10.4401C11.9445 10.534 11.9978 10.6618 11.9978 10.7951C11.9978 10.9285 11.9445 11.0563 11.8499 11.1501L11.1499 11.8501C11.056 11.9448 10.9282 11.998 10.7949 11.998C10.6615 11.998 10.5337 11.9448 10.4399 11.8501L5.99985 7.41015L1.55985 11.8501C1.46597 11.9448 1.33817 11.998 1.20485 11.998C1.07153 11.998 0.943736 11.9448 0.849852 11.8501L0.149852 11.1501C0.0551959 11.0563 0.00195308 10.9285 0.00195307 10.7951C0.00195307 10.6618 0.0551959 10.534 0.149852 10.4401L4.58985 6.00015L0.149852 1.56015C0.0551955 1.46626 0.00195266 1.33847 0.00195265 1.20515C0.00195265 1.07183 0.0551955 0.944031 0.149852 0.850147L0.849852 0.150147C0.943735 0.0554914 1.07153 0.00224872 1.20485 0.00224871C1.33817 0.00224871 1.46597 0.0554914 1.55985 0.150147L5.99985 4.59015L10.4399 0.150147Z" fill="#2D2D30"/>
</svg>
