<svg width="20" height="20" viewBox="0 0 20 20" fill="none" xmlns="http://www.w3.org/2000/svg">
<path d="M10 20C15.5142 20 20 15.5133 20 10C20 4.48667 15.5133 0 10 0C4.48667 0 0 4.48583 0 10C0 15.5142 4.48583 20 10 20ZM10 1.25C14.8233 1.25 18.75 5.175 18.75 10C18.75 14.8233 14.8233 18.75 10 18.75C5.175 18.75 1.25 14.8233 1.25 10C1.25 5.175 5.175 1.25 10 1.25Z" fill="white"/>
<path d="M14.7862 4.22583C13.4879 3.1475 11.8204 2.5 10.0012 2.5C9.47625 2.5 8.96375 2.555 8.46875 2.6575C9.37875 3.9475 10.2054 5.29 10.9329 6.68167C12.3087 6.04 13.6037 5.2125 14.7862 4.22583Z" fill="white"/>
<path d="M12.3874 9.87659C14.0474 9.53492 15.7749 9.50325 17.4874 9.78742C17.4374 7.99992 16.7649 6.36992 15.6749 5.10742C14.3882 6.19159 12.9732 7.08992 11.4707 7.79242C11.799 8.47742 12.104 9.17159 12.3874 9.87659Z" fill="white"/>
<path d="M9.76589 7.15435C9.01422 5.72852 8.16338 4.35352 7.21339 3.04102C4.96172 3.94352 3.25505 5.90351 2.69922 8.30935C5.12672 8.41268 7.52922 8.00851 9.76589 7.15435Z" fill="white"/>
<path d="M11.17 10.1879C10.9092 9.54544 10.6267 8.91294 10.325 8.28711C8.15999 9.13044 5.8475 9.59044 3.49583 9.59044C3.1725 9.59044 2.8475 9.57044 2.5225 9.55294C2.51417 9.70128 2.5 9.84961 2.5 10.0004C2.5 11.8421 3.16667 13.5271 4.2675 14.8321C6.06833 12.5954 8.48999 10.9929 11.17 10.1879Z" fill="white"/>
<path d="M12.8477 11.059C13.4435 12.7223 13.911 14.4315 14.2543 16.1731C15.9443 15.0073 17.1243 13.1656 17.4202 11.0381C15.8877 10.7673 14.3385 10.779 12.8477 11.059Z" fill="white"/>
<path d="M5.1543 15.7196C6.46263 16.8288 8.15096 17.4996 10.0001 17.4996C11.1101 17.4996 12.161 17.2521 13.1085 16.8188C12.7651 14.9513 12.2651 13.1238 11.6193 11.3496C9.0993 12.0854 6.82346 13.5979 5.1543 15.7196Z" fill="white"/>
</svg>
