<svg width="20" height="20" viewBox="0 0 20 20" fill="none" xmlns="http://www.w3.org/2000/svg">
<path d="M10.0028 4.86523C7.16693 4.86523 4.87109 7.16357 4.87109 9.9969C4.87109 12.8327 7.16943 15.1286 10.0028 15.1286C12.8386 15.1286 15.1344 12.8302 15.1344 9.9969C15.1344 7.16107 12.8361 4.86523 10.0028 4.86523ZM10.0028 13.3277C8.16193 13.3277 6.67193 11.8369 6.67193 9.9969C6.67193 8.1569 8.16276 6.66607 10.0028 6.66607C11.8428 6.66607 13.3336 8.1569 13.3336 9.9969C13.3344 11.8369 11.8436 13.3277 10.0028 13.3277Z" fill="white"/>
<path d="M14.1216 0.0637988C12.2816 -0.0220346 7.72407 -0.0178679 5.8824 0.0637988C4.26407 0.139632 2.83657 0.530465 1.68574 1.6813C-0.237597 3.60463 0.00823626 6.1963 0.00823626 9.99713C0.00823626 13.8871 -0.20843 16.4188 1.68574 18.313C3.61657 20.243 6.24574 19.9905 10.0016 19.9905C13.8549 19.9905 15.1849 19.993 16.5474 19.4655C18.3999 18.7463 19.7982 17.0905 19.9349 14.1163C20.0216 12.2755 20.0166 7.7188 19.9349 5.87713C19.7699 2.3663 17.8857 0.237132 14.1216 0.0637988ZM17.0341 17.0405C15.7732 18.3013 14.0241 18.1888 9.9774 18.1888C5.81074 18.1888 4.1399 18.2505 2.92074 17.028C1.51657 15.6305 1.77074 13.3863 1.77074 9.9838C1.77074 5.37963 1.29824 2.0638 5.91907 1.82713C6.98074 1.78963 7.29324 1.77713 9.96574 1.77713L10.0032 1.80213C14.4441 1.80213 17.9282 1.33713 18.1374 5.95713C18.1849 7.0113 18.1957 7.32796 18.1957 9.9963C18.1949 14.1146 18.2732 15.7955 17.0341 17.0405Z" fill="white"/>
<path d="M15.3378 5.86219C16.0001 5.86219 16.537 5.32531 16.537 4.66303C16.537 4.00075 16.0001 3.46387 15.3378 3.46387C14.6756 3.46387 14.1387 4.00075 14.1387 4.66303C14.1387 5.32531 14.6756 5.86219 15.3378 5.86219Z" fill="white"/>
</svg>
