<svg width="20" height="14" viewBox="0 0 20 14" fill="none" xmlns="http://www.w3.org/2000/svg">
<path d="M10.3025 9.45583C10.3025 7.91583 9.57 6.7775 8.05667 6.35083C9.16083 5.825 9.73667 5.02833 9.73667 3.78917C9.73667 1.34583 7.91 0.75 5.8025 0.75H0V13.0175H5.965C8.20167 13.0175 10.3025 11.9483 10.3025 9.45583ZM2.705 2.84417H5.24333C6.21917 2.84417 7.0975 3.1175 7.0975 4.24583C7.0975 5.2875 6.41417 5.70667 5.4475 5.70667H2.705V2.84417ZM2.70417 10.9342V7.55583H5.6525C6.84333 7.55583 7.59667 8.05083 7.59667 9.3075C7.59667 10.5467 6.6975 10.9342 5.59667 10.9342H2.70417Z" fill="white"/>
<path d="M15.6635 13.2498C17.7918 13.2498 19.1702 12.2939 19.8335 10.2623H17.6735C17.441 11.0206 16.4827 11.4214 15.7393 11.4214C14.3052 11.4214 13.5518 10.5839 13.5518 9.16059H19.9793C20.1827 6.31226 18.596 3.88477 15.6627 3.88477C12.9468 3.88477 11.1035 5.91976 11.1035 8.58559C11.1035 11.3523 12.8502 13.2498 15.6635 13.2498ZM15.5868 5.7281C16.816 5.7281 17.4343 6.4481 17.5377 7.62559H13.5552C13.636 6.4581 14.4135 5.7281 15.5868 5.7281Z" fill="white"/>
<path d="M13.0566 1.39453H18.0466V2.60287H13.0566V1.39453Z" fill="white"/>
</svg>
