<svg width="126" height="40" viewBox="0 0 126 40" fill="none" xmlns="http://www.w3.org/2000/svg">
<path d="M64.6264 39.9946C54.1969 39.9946 45.7422 31.5351 45.7422 21.0997V6.40374C45.7422 2.9253 48.5604 0.105469 52.0369 0.105469C55.5134 0.105469 58.3317 2.9253 58.3317 6.40375V20.3125C58.3317 23.646 61.0325 26.3483 64.3641 26.3483C67.6958 26.3483 70.3966 23.646 70.3966 20.3125V6.66618C70.3966 3.0428 73.3323 0.105469 76.9536 0.105469C80.575 0.105469 83.5107 3.0428 83.5107 6.66618V21.0997C83.5107 31.5351 75.0559 39.9946 64.6264 39.9946Z" fill="#1421FF"/>
<path d="M2.38384 12.5438C-0.484122 9.67424 -0.484121 5.02175 2.38384 2.15218C5.2518 -0.717391 9.90168 -0.717394 12.7696 2.15218L37.9923 27.389C40.8602 30.2586 40.8602 34.9111 37.9923 37.7806C35.1243 40.6502 30.4744 40.6502 27.6065 37.7806L20.1052 30.2751L12.5368 37.8478C9.66881 40.7174 5.01893 40.7174 2.15097 37.8478C-0.716986 34.9783 -0.716993 30.3258 2.15097 27.4562L9.71941 19.8835L2.38384 12.5438Z" fill="#2D2D30"/>
<path d="M39.9721 7.45334C39.9721 11.5115 36.6841 14.8013 32.6282 14.8013C28.5723 14.8013 25.2844 11.5115 25.2844 7.45334C25.2844 3.39515 28.5723 0.105342 32.6282 0.105342C36.6841 0.105342 39.9721 3.39515 39.9721 7.45334Z" fill="#2D2D30"/>
<path fill-rule="evenodd" clip-rule="evenodd" d="M90.3443 5.97458C90.3348 6.1164 90.3299 6.25949 90.3299 6.40373V26.3116C90.3298 26.324 90.3298 26.3363 90.3298 26.3487C90.3298 26.361 90.3298 26.3734 90.3299 26.3857V33.6963C90.3299 37.1747 93.1482 39.9946 96.6246 39.9946C100.101 39.9946 102.919 37.1747 102.919 33.6963V31.5972H110.263C118.954 31.5972 126 24.5476 126 15.8515C126 7.15541 118.954 0.105824 110.263 0.105824H96.6939C96.6708 0.105575 96.6478 0.105451 96.6246 0.105451C96.6015 0.105451 96.5785 0.105575 96.5554 0.105824H95.794C92.7762 0.105824 90.3298 2.5536 90.3298 5.57308C90.3298 5.70811 90.3347 5.842 90.3443 5.97458ZM102.919 11.0403V21.1001H108.77C111.546 21.1001 113.797 18.8481 113.797 16.0702C113.797 13.2923 111.546 11.0403 108.77 11.0403H102.919Z" fill="#2D2D30"/>
</svg>
