<svg width="75" height="24" viewBox="0 0 75 24" fill="none" xmlns="http://www.w3.org/2000/svg">
<path fill-rule="evenodd" clip-rule="evenodd" d="M1.41932 7.52622C-0.287788 5.80449 -0.287786 3.01302 1.41933 1.2913C3.12644 -0.430432 5.89421 -0.430432 7.60132 1.2913L22.6147 16.4333C24.3219 18.155 24.3219 20.9465 22.6147 22.6682C20.9076 24.3899 18.1399 24.3899 16.4327 22.6682L11.9677 18.1649L7.46233 22.7088C5.75522 24.4305 2.98745 24.4305 1.28034 22.7088C-0.426776 20.9871 -0.42678 18.1956 1.28033 16.4739L5.78568 11.93L1.41932 7.52622ZM23.7933 4.47143C23.7933 6.90632 21.8362 8.88019 19.422 8.88019C17.0078 8.88019 15.0506 6.90632 15.0506 4.47143C15.0506 2.03654 17.0078 0.06267 19.422 0.06267C21.8362 0.06267 23.7933 2.03654 23.7933 4.47143Z" fill="#2D2D30"/>
<path d="M38.4691 23.9961C32.2611 23.9961 27.2285 18.9635 27.2285 12.7555L27.2285 3.8097C27.2285 1.74037 28.906 0.0628347 30.9754 0.0628347C33.0447 0.0628347 34.7222 1.74036 34.7222 3.80969V12.2177C34.7222 14.2008 36.3299 15.8084 38.313 15.8084C40.2961 15.8084 41.9037 14.2008 41.9037 12.2177V3.96581C41.9037 1.81025 43.6511 0.0628347 45.8067 0.0628347C47.9622 0.0628347 49.7096 1.81026 49.7096 3.96581V12.7555C49.7096 18.9635 44.6771 23.9961 38.4691 23.9961Z" fill="#1421FF"/>
<path fill-rule="evenodd" clip-rule="evenodd" d="M53.7755 3.57374C53.7707 3.65166 53.7682 3.73022 53.7682 3.80936V15.7437C53.7678 15.7653 53.7676 15.787 53.7676 15.8088C53.7676 15.8306 53.7678 15.8523 53.7682 15.874V20.2489C53.7682 22.3182 55.4458 23.9958 57.5151 23.9958C59.5844 23.9958 61.262 22.3182 61.262 20.2489V18.9579H65.5524C70.77 18.9579 74.9998 14.7282 74.9998 9.51059C74.9998 4.29297 70.77 0.0632495 65.5524 0.0632495H57.5908C57.5656 0.0627506 57.5404 0.0625 57.5151 0.0625C57.4898 0.0625 57.4646 0.0627506 57.4394 0.0632495H57.0479C55.2362 0.0632495 53.7676 1.5319 53.7676 3.34358C53.7676 3.42095 53.7703 3.4977 53.7755 3.57374ZM61.262 6.6239V12.6597H64.7182C66.385 12.6597 67.7361 11.3085 67.7361 9.6418C67.7361 7.97506 66.385 6.6239 64.7182 6.6239H61.262Z" fill="#2D2D30"/>
</svg>
