<svg width="34" height="28" viewBox="0 0 34 28" fill="none" xmlns="http://www.w3.org/2000/svg">
<path fill-rule="evenodd" clip-rule="evenodd" d="M3.66732 0.666992H30.334C32.1673 0.666992 33.6673 2.16699 33.6673 4.00033V24.0003C33.6673 25.8337 32.1673 27.3337 30.334 27.3337H3.66732C1.83398 27.3337 0.333984 25.8337 0.333984 24.0003V4.00033C0.333984 2.16699 1.83398 0.666992 3.66732 0.666992ZM18.7673 14.567L29.6673 7.75032C30.084 7.48365 30.334 7.03365 30.334 6.55032C30.334 5.43365 29.1173 4.76699 28.1673 5.35032L17.0007 12.3337L5.83398 5.35032C4.88398 4.76699 3.66732 5.43365 3.66732 6.55032C3.66732 7.03365 3.91732 7.48365 4.33398 7.75032L15.234 14.567C16.3173 15.2503 17.684 15.2503 18.7673 14.567Z" fill="#1421FF"/>
</svg>
