<svg width="24" height="24" viewBox="0 0 24 24" fill="none" xmlns="http://www.w3.org/2000/svg">
<path fill-rule="evenodd" clip-rule="evenodd" d="M22.3636 7.97251H1.63636C0.732 7.97251 0 7.33861 0 6.55754C0 5.77648 0.732 5.14258 1.63636 5.14258H22.3636C23.2669 5.14258 24 5.77648 24 6.55754C24 7.33861 23.2669 7.97251 22.3636 7.97251ZM1.63636 16.0269H22.3636C23.2669 16.0269 24 16.6608 24 17.4419C24 18.223 23.2669 18.8569 22.3636 18.8569H1.63636C0.732 18.8569 0 18.223 0 17.4419C0 16.6608 0.732 16.0269 1.63636 16.0269Z" fill="black"/>
<mask id="mask0" mask-type="alpha" maskUnits="userSpaceOnUse" x="0" y="5" width="24" height="14">
<path fill-rule="evenodd" clip-rule="evenodd" d="M22.3636 7.97251H1.63636C0.732 7.97251 0 7.33861 0 6.55754C0 5.77648 0.732 5.14258 1.63636 5.14258H22.3636C23.2669 5.14258 24 5.77648 24 6.55754C24 7.33861 23.2669 7.97251 22.3636 7.97251ZM1.63636 16.0269H22.3636C23.2669 16.0269 24 16.6608 24 17.4419C24 18.223 23.2669 18.8569 22.3636 18.8569H1.63636C0.732 18.8569 0 18.223 0 17.4419C0 16.6608 0.732 16.0269 1.63636 16.0269Z" fill="white"/>
</mask>
<g mask="url(#mask0)">
<rect width="24" height="24" fill="#2D2D30"/>
</g>
</svg>
