<svg width="24" height="34" viewBox="0 0 24 34" fill="none" xmlns="http://www.w3.org/2000/svg">
<path fill-rule="evenodd" clip-rule="evenodd" d="M0.333984 12.4421C0.333984 5.99206 5.55065 0.775391 12.0007 0.775391C18.4507 0.775391 23.6673 5.99206 23.6673 12.4421C23.6673 19.3921 16.3007 28.9754 13.284 32.6254C12.6173 33.4254 11.4007 33.4254 10.734 32.6254C7.70065 28.9754 0.333984 19.3921 0.333984 12.4421ZM7.83399 12.4421C7.83399 14.7421 9.70065 16.6087 12.0007 16.6087C14.3007 16.6087 16.1673 14.7421 16.1673 12.4421C16.1673 10.1421 14.3007 8.27539 12.0007 8.27539C9.70065 8.27539 7.83399 10.1421 7.83399 12.4421Z" fill="#1421FF"/>
</svg>
